{"asset":{"generator":"Foundry Modo 16.1v6","version":"2.0"},"extensionsUsed":["KHR_texture_transform"],"scene":0,"scenes":[{"nodes":[0,1,2]}],"nodes":[{"name":"Mesh","mesh":0},{"name":"Camera","matrix":[1.0,0.0,0.0,0.0,0.0,0.9961947202682495,-0.08715574443340302,0.0,0.0,0.08715574443340302,0.9961947202682495,0.0,0.0,0.75,4.0,1.0],"camera":0},{"name":"Texture Group"}],"meshes":[{"primitives":[{"indices":1,"mode":4,"material":1,"attributes":{"POSITION":0,"NORMAL":2,"TEXCOORD_0":3}}]}],"buffers":[{"byteLength":15816,"uri":"kostka.bin"}],"bufferViews":[{"buffer":0,"byteLength":4608},{"buffer":0,"byteLength":3528,"byteOffset":4608},{"buffer":0,"byteLength":4608,"byteOffset":8136},{"buffer":0,"byteLength":3072,"byteOffset":12744}],"accessors":[{"bufferView":0,"type":"VEC3","componentType":5126,"count":384,"min":[-0.5,-0.5,-0.5],"max":[0.5,0.5,0.5]},{"bufferView":1,"type":"SCALAR","componentType":5123,"count":1764},{"bufferView":2,"type":"VEC3","componentType":5126,"count":384},{"bufferView":3,"type":"VEC2","componentType":5126,"count":384}],"materials":[{"pbrMetallicRoughness":{"metallicFactor":0.5,"roughnessFactor":0.5}},{"name":"bake","emissiveFactor":[0.0,0.0,0.0],"alphaMode":"OPAQUE","doubleSided":false,"pbrMetallicRoughness":{"baseColorFactor":[1.0,1.0,1.0,1.0],"metallicFactor":1.0,"roughnessFactor":1.0}}],"cameras":[{"name":"Camera","type":"perspective","perspective":{"znear":0.01,"yfov":0.8726}}]}